<?xml version="1.0" encoding="UTF-8" standalone="no"?>
<svg
   xmlns:osb="http://www.openswatchbook.org/uri/2009/osb"
   xmlns:dc="http://purl.org/dc/elements/1.1/"
   xmlns:cc="http://creativecommons.org/ns#"
   xmlns:rdf="http://www.w3.org/1999/02/22-rdf-syntax-ns#"
   xmlns:svg="http://www.w3.org/2000/svg"
   xmlns="http://www.w3.org/2000/svg"
   id="svg8"
   version="1.1"
   viewBox="0 0 39.687499 39.687501"
   height="150"
   width="150">
  <defs
     id="defs2">
    <linearGradient
       osb:paint="solid"
       id="linearGradient844">
      <stop
         id="stop842"
         offset="0"
         style="stop-color:#030303;stop-opacity:1;" />
    </linearGradient>
  </defs>
  <metadata
     id="metadata5">
    <rdf:RDF>
      <cc:Work
         rdf:about="">
        <dc:format>image/svg+xml</dc:format>
        <dc:type
           rdf:resource="http://purl.org/dc/dcmitype/StillImage" />
        <dc:title></dc:title>
      </cc:Work>
    </rdf:RDF>
  </metadata>
  <g
     transform="translate(0,-257.31248)"
     id="layer1">
    <path
       id="path827"
       d="m 10.866815,274.13242 c 0.187613,0.70412 -1.0660622,1.57306 -0.8789027,1.81455 0.2362587,-0.26001 0.9389727,-0.74416 0.5926467,-0.0304 -0.194962,1.05483 -1.3872287,1.69936 -1.2857808,2.84845 -0.00733,0.71166 -0.307819,1.81137 -0.1025626,2.28504 0.3825267,-0.15132 1.0598624,-1.0274 1.3034714,-0.73055 -0.246462,0.96377 -1.1347923,1.85206 -0.7831461,2.90269 0.5274811,1.5387 1.1560871,3.03983 1.7212411,4.5646 0.355832,-0.28666 0.963276,-1.29755 1.155139,-1.11388 -0.391881,0.82597 0.518777,1.24829 1.105884,1.5454 1.179721,0.70007 2.329459,1.46443 3.319963,2.41886 0.563098,0.10001 0.279348,-1.0464 0.496936,-1.45911 0.04759,-0.38373 0.118272,-0.96668 0.270703,-0.27414 0.09327,0.49729 0.389602,1.54119 0.89759,0.73481 0.702898,-0.66456 1.405799,-1.32912 2.108695,-1.99368 0.166686,-0.40494 -0.07262,-1.51998 0.329416,-1.5151 0.153791,0.32269 0.698128,1.39106 0.608241,0.40397 0.06542,-0.96829 0.130848,-1.93657 0.196272,-2.90486 0.208088,0.32092 0.634254,1.78012 0.744545,0.68309 0.315259,-1.42032 0.646592,-2.83791 0.899142,-4.27117 -0.295909,-1.32382 -0.591824,-2.64763 -0.887734,-3.97145 0.299231,0.45672 0.598461,0.91344 0.897692,1.37016 -0.336525,-1.10921 -0.344907,-2.37466 -1.084453,-3.31963 -0.07949,-0.12188 -0.158975,-0.24376 -0.238463,-0.36564"
       style="fill:none;stroke:#0f0f0f;stroke-width:0.26458332px;stroke-linecap:butt;stroke-linejoin:miter;stroke-opacity:1" />
    <g
       style="stroke-width:0.4;stroke-miterlimit:4;stroke-dasharray:none;stroke:#070707;stroke-opacity:1"
       transform="translate(0.60135644,-0.80180859)"
       id="g838">
      <path
         style="fill:none;stroke:#070707;stroke-width:0.4;stroke-linecap:butt;stroke-linejoin:miter;stroke-opacity:1;stroke-miterlimit:4;stroke-dasharray:none"
         d="m 12.567708,268.74626 -0.09449,2.26786 h 2.834822 l 0.09449,-2.26786 z"
         id="path832" />
      <path
         style="fill:none;stroke:#070707;stroke-width:0.4;stroke-linecap:butt;stroke-linejoin:miter;stroke-miterlimit:4;stroke-dasharray:none;stroke-opacity:1"
         d="m 15.411487,268.7368 v 0 h 1.153095 l 2.79486,-0.0334 -0.01271,2.32019 h -2.828268 l 0.04612,-2.28678"
         id="path834" />
    </g>
  </g>
</svg>
