<?xml version="1.0" encoding="UTF-8" standalone="no"?>
<svg
   xmlns:osb="http://www.openswatchbook.org/uri/2009/osb"
   xmlns:dc="http://purl.org/dc/elements/1.1/"
   xmlns:cc="http://creativecommons.org/ns#"
   xmlns:rdf="http://www.w3.org/1999/02/22-rdf-syntax-ns#"
   xmlns:svg="http://www.w3.org/2000/svg"
   xmlns="http://www.w3.org/2000/svg"
   id="svg8"
   version="1.1"
   viewBox="0 0 132.29167 132.29167"
   height="500"
   width="500">
  <defs
     id="defs2">
    <linearGradient
       osb:paint="solid"
       id="linearGradient844">
      <stop
         id="stop842"
         offset="0"
         style="stop-color:#030303;stop-opacity:1;" />
    </linearGradient>
  </defs>
  <metadata
     id="metadata5">
    <rdf:RDF>
      <cc:Work
         rdf:about="">
        <dc:format>image/svg+xml</dc:format>
        <dc:type
           rdf:resource="http://purl.org/dc/dcmitype/StillImage" />
        <dc:title></dc:title>
      </cc:Work>
    </rdf:RDF>
  </metadata>
  <g
     transform="translate(0,-164.70831)"
     id="layer1">
    <path
       id="path859"
       d="m 114.79113,187.55973 -7.55923,0.37776 -9.260418,1.41748 -3.87418,1.70119 -3.685564,0.094 -6.614583,0.66146 h -5.669423 l -3.401859,0.37827 -2.834969,0.75602 -1.984375,1.51154 -5.574853,1.03973 -6.047695,1.88981 -4.252452,2.07894 -1.79524,1.13378 -1.22835,-0.94464 -4.063317,-2.07895 -3.212724,-1.79575 -3.874181,-1.88981 -3.024105,-1.13378 -3.496429,-0.66146 h -2.551264 l 1.417484,2.55127 2.929536,4.91391 2.645833,4.44107 0.472324,4.53564 0.566891,1.41749 -1.700673,2.26808 -3.024103,4.44107 -0.377756,0.94464 -5.57537,2.26808 -7.181474,3.591 -3.96875,2.07842 -4.251937,2.26808 -2.645833,0.0946 -0.9451624,1.03921 1.1337804,1.32292 2.173511,0.66146 c 0,0 0.850299,0.37797 2.456698,0 1.606399,-0.37798 6.709151,-0.56689 6.709151,-0.56689 l 6.142261,-0.94465 2.456698,-0.2837 0.189135,5.1971 0.944645,4.63021 0.945163,3.11815 1.984375,3.8747 1.512051,2.83446 4.724779,5.57536 3.590478,3.49643 1.322916,1.03922 4.630209,2.45669 0.661458,2.83497 2.362647,3.02359 2.172994,0.47284 0.09457,-2.26808 0.09457,-1.79524 2.456699,0.37776 2.740401,0.0946 1.417484,1.51206 3.118157,0.94464 1.039727,-0.37775 -0.850593,-2.17351 3.401859,1.1343 2.173513,0.37775 1.984375,3.591 2.172994,3.21272 3.024103,2.83445 4.06332,1.79576 4.062799,1.51153 3.401862,0.37827 -1.133782,-2.36264 -2.551266,-3.96875 -1.701189,-2.92902 -0.283186,-2.4567 -2.456696,-1.51205 -0.850596,-2.36265 0.09457,-1.70067 1.79524,-1.13378 0.09457,-2.92954 0.756026,-4.44107 2.078945,-3.11816 -0.283705,-2.64583 1.606621,-0.8506 h 2.645834 l -0.56741,-1.70118 -0.661458,-0.66146 0.661458,-2.4567 -0.472321,-0.75602 -1.039214,0.56688 -1.984375,0.37828 -1.228347,-1.41749 -1.512054,-0.85059 1.133782,0.0946 3.118154,1.03973 4.157888,0.37775 5.858557,-0.47232 3.496426,-2.26808 0.94516,-3.77962 -0.0749,-0.79633 -0.24753,0.55242 -1.069183,1.4702 -3.608049,1.33635 -6.547922,-0.13384 -7.082772,-1.73737 -4.944401,-2.27169 -4.543907,-4.41007 -3.608049,-4.00906 -3.474206,-5.07772 -3.340884,-2.00453 4.543394,-2.53938 4.810559,-4.81056 7.617624,-5.07824 8.285282,-2.53887 7.349937,0.66818 7.483267,2.27169 5.21208,3.0732 2.85823,2.50114 1.34255,-1.79007 1.51205,-3.87418 2.4567,-5.00796 2.7404,-8.31578 0.47233,-3.11815 -1.32292,-0.94516 z m -3.79925,23.42906 -1.77561,2.36782 -2.55126,2.83497 -3.11867,2.07842 -2.64584,3.96875 -0.56689,3.11867 0.56689,4.15737 0.39791,4.21215 10.04228,-22.43274 z m -43.825751,30.62139 3.401859,1.32292 4.157885,1.22835 4.063317,1.13429 1.039215,0.47233 -1.984375,2.26756 -2.740401,3.21324 -2.267564,3.30729 -1.889805,3.02359 -0.945163,0.94516 -2.26808,-0.75603 0.56741,-1.32291 -2.362648,-0.94516 -2.362131,-1.22835 -2.078942,-4.44108 2.362131,-4.63021 z"
       style="fill:#000000;fill-opacity:1;stroke:#000000;stroke-width:0.26458335px;stroke-linecap:butt;stroke-linejoin:miter;stroke-opacity:1" />
    <path
       id="path893"
       d="m 78.61905,194.66292 -1.511906,-0.37797 -2.55134,-0.18899 -1.511903,-0.0945 v 1.13392 l 0.755952,1.03944 2.078868,0.18899 1.417413,-0.56697 z"
       style="fill:#ffffff;stroke:#000000;stroke-width:0.26458335px;stroke-linecap:butt;stroke-linejoin:miter;stroke-opacity:1;fill-opacity:1" />
    <ellipse
       ry="0.89769346"
       rx="0.94494051"
       cy="195.18265"
       cx="75.878723"
       id="path897"
       style="opacity:0.95999995;fill:#000000;fill-opacity:1;stroke:#040404;stroke-width:0.5291667;stroke-linecap:round;stroke-linejoin:round;stroke-miterlimit:4;stroke-dasharray:none;stroke-dashoffset:0;stroke-opacity:1" />
  </g>
</svg>
