<?xml version="1.0" encoding="UTF-8" standalone="no"?>
<svg
   xmlns:osb="http://www.openswatchbook.org/uri/2009/osb"
   xmlns:dc="http://purl.org/dc/elements/1.1/"
   xmlns:cc="http://creativecommons.org/ns#"
   xmlns:rdf="http://www.w3.org/1999/02/22-rdf-syntax-ns#"
   xmlns:svg="http://www.w3.org/2000/svg"
   xmlns="http://www.w3.org/2000/svg"
   id="svg8"
   version="1.1"
   viewBox="0 0 132.29167 132.29167"
   height="500"
   width="500">
  <defs
     id="defs2">
    <linearGradient
       osb:paint="solid"
       id="linearGradient844">
      <stop
         id="stop842"
         offset="0"
         style="stop-color:#030303;stop-opacity:1;" />
    </linearGradient>
  </defs>
  <metadata
     id="metadata5">
    <rdf:RDF>
      <cc:Work
         rdf:about="">
        <dc:format>image/svg+xml</dc:format>
        <dc:type
           rdf:resource="http://purl.org/dc/dcmitype/StillImage" />
        <dc:title></dc:title>
      </cc:Work>
    </rdf:RDF>
  </metadata>
  <g
     transform="translate(0,-164.70831)"
     id="layer1">
    <path
       id="path859"
       transform="matrix(0.26458334,0,0,0.26458334,0,164.70831)"
       d="M 426.78516 85.357422 L 398.21484 86.785156 L 363.21484 92.142578 L 348.57227 98.572266 L 334.64258 98.927734 L 309.64258 101.42773 L 288.21484 101.42773 L 275.35742 102.85742 L 264.64258 105.71484 L 257.14258 111.42773 L 236.07227 115.35742 L 213.21484 122.5 L 197.14258 130.35742 L 190.35742 134.64258 L 185.71484 131.07227 L 170.35742 123.21484 L 158.21484 116.42773 L 143.57227 109.28516 L 132.14258 105 L 118.92773 102.5 L 109.28516 102.5 L 114.64258 112.14258 L 125.71484 130.71484 L 135.71484 147.5 L 137.5 164.64258 L 139.64258 170 L 133.21484 178.57227 L 121.78516 195.35742 L 120.35742 198.92773 L 99.285156 207.5 L 72.142578 221.07227 L 57.142578 228.92773 L 41.072266 237.5 L 31.072266 237.85742 L 27.5 241.78516 L 31.785156 246.78516 L 40 249.28516 C 40 249.28516 43.213727 250.7137 49.285156 249.28516 C 55.356585 247.85657 74.642578 247.14258 74.642578 247.14258 L 97.857422 243.57227 L 107.14258 242.5 L 107.85742 262.14258 L 111.42773 279.64258 L 115 291.42773 L 122.5 306.07227 L 128.21484 316.78516 L 146.07227 337.85742 L 159.64258 351.07227 L 164.64258 355 L 182.14258 364.28516 L 184.64258 375 L 193.57227 386.42773 L 201.78516 388.21484 L 202.14258 379.64258 L 202.5 372.85742 L 211.78516 374.28516 L 222.14258 374.64258 L 227.5 380.35742 L 239.28516 383.92773 L 243.21484 382.5 L 240 374.28516 L 252.85742 378.57227 L 261.07227 380 L 268.57227 393.57227 L 276.78516 405.71484 L 288.21484 416.42773 L 303.57227 423.21484 L 318.92773 428.92773 L 331.78516 430.35742 L 327.5 421.42773 L 317.85742 406.42773 L 311.42773 395.35742 L 310.35742 386.07227 L 301.07227 380.35742 L 297.85742 371.42773 L 298.21484 365 L 305 360.71484 L 305.35742 349.64258 L 308.21484 332.85742 L 316.07227 321.07227 L 315 311.07227 L 321.07227 307.85742 L 331.07227 307.85742 L 328.92773 301.42773 L 326.42773 298.92773 L 328.92773 289.64258 L 327.14258 286.78516 L 323.21484 288.92773 L 315.71484 290.35742 L 311.07227 285 L 305.35742 281.78516 L 309.64258 282.14258 L 321.42773 286.07227 L 337.14258 287.5 L 359.28516 285.71484 L 372.5 277.14258 L 376.07227 262.85742 L 374.28516 243.92773 L 372.14258 228.21484 L 374.28516 216.42773 L 384.28516 201.42773 L 396.07227 193.57227 L 405.71484 182.85742 L 417.5 167.14258 L 423.21484 152.5 L 432.5 133.57227 L 442.85742 102.14258 L 444.64258 90.357422 L 439.64258 86.785156 L 426.78516 85.357422 z M 246.78516 289.64258 L 259.64258 294.64258 L 275.35742 299.28516 L 290.71484 303.57227 L 294.64258 305.35742 L 287.14258 313.92773 L 276.78516 326.07227 L 268.21484 338.57227 L 261.07227 350 L 257.5 353.57227 L 248.92773 350.71484 L 251.07227 345.71484 L 242.14258 342.14258 L 233.21484 337.5 L 225.35742 320.71484 L 234.28516 303.21484 L 246.78516 289.64258 z "
       style="fill:#000000;fill-opacity:1;stroke:#000000;stroke-width:1px;stroke-linecap:butt;stroke-linejoin:miter;stroke-opacity:1" />
    <path
       id="path863"
       d="m 109.46981,211.02697 -3.20723,-2.80633 -5.21176,-3.0736 -7.483555,-2.27179 -7.349913,-0.66818 -8.285353,2.53906 -7.617183,5.07812 -4.810852,4.81086 -4.543582,2.53906 3.340869,2.00452 3.474504,5.07812 3.608139,4.00904 4.543582,4.40995 4.944486,2.27179 7.082643,1.73725 6.548104,0.13364 3.608138,-1.33635 1.069079,-1.46998"
       style="fill:#591515;fill-opacity:1;stroke:#000000;stroke-width:0.26458335px;stroke-linecap:butt;stroke-linejoin:miter;stroke-opacity:1" />
    <path
       id="path865"
       d="m 76.706356,205.46016 5.61266,-0.53453 5.345393,-0.40091 6.81537,0.80181 6.013571,1.20271 4.81085,2.6727 3.20723,1.33635 0.66817,0.53454 0.71698,-0.67665 -0.8032,-0.7087 -1.70089,-1.7009 -2.07887,-1.27566 -2.69308,-1.88989 -2.22061,-0.75595 -3.590776,-1.18117 -2.834821,-0.75596 -3.590774,-0.47247 -3.590774,-0.33073 -1.795387,0.56697 -3.732515,1.13393 -2.456845,0.75595 -1.984375,1.18118 z"
       style="fill:#930000;stroke:#000000;stroke-width:0.26458335px;stroke-linecap:butt;stroke-linejoin:miter;stroke-opacity:1;fill-opacity:1" />
    <path
       id="path889"
       d="m 92.225102,204.84597 -1.717346,3.36969 -2.053564,3.10677 0.02916,1.01604 3.487029,1.67866 2.62829,0.14094 1.625827,-2.52058 1.057964,-2.34271 1.571963,-2.94518 z"
       style="fill:#f3d1d1;fill-opacity:1;stroke:#000000;stroke-width:0.26458335px;stroke-linecap:butt;stroke-linejoin:miter;stroke-opacity:1" />
    <path
       style="fill:#f3d1d1;fill-opacity:1;stroke:#000000;stroke-width:0.26458335px;stroke-linecap:butt;stroke-linejoin:miter;stroke-opacity:1"
       d="m 99.01806,206.361 -1.663071,3.69835 -1.836765,3.24486 -0.288351,1.06755 3.845715,1.34623 2.579812,0.0336 1.63946,-2.41466 0.97219,-2.37958 0.68281,-1.83017 -4.29141,-2.39894 z"
       id="path891" />
    <path
       id="path893"
       d="m 78.61905,194.66292 -1.511906,-0.37797 -2.55134,-0.18899 -1.511903,-0.0945 v 1.13392 l 0.755952,1.03944 2.078868,0.18899 1.417413,-0.56697 z"
       style="fill:#ffffff;stroke:#000000;stroke-width:0.26458335px;stroke-linecap:butt;stroke-linejoin:miter;stroke-opacity:1;fill-opacity:1" />
    <ellipse
       ry="0.89769346"
       rx="0.94494051"
       cy="195.18265"
       cx="75.878723"
       id="path897"
       style="opacity:0.95999995;fill:#000000;fill-opacity:1;stroke:#040404;stroke-width:0.5291667;stroke-linecap:round;stroke-linejoin:round;stroke-miterlimit:4;stroke-dasharray:none;stroke-dashoffset:0;stroke-opacity:1" />
  </g>
</svg>
